<svg id="eaGqcJOZHKP1" xmlns="http://www.w3.org/2000/svg" xmlns:xlink="http://www.w3.org/1999/xlink" viewBox="0 0 336 219" shape-rendering="geometricPrecision" text-rendering="geometricPrecision"><path d="M221,220c-73.666656,0-146.833313,0-219.99998,0-.000007-72.999985-.000007-145.999962-.000013-218.999961c111.999962-.000013,223.999932-.000013,335.999932-.000026c0,72.999949,0,145.999911.00003,218.999926C298.5,220,260,220,221,220M4.973774,103.305794c-.416683,5.447212-.833366,10.894432-1.244145,16.264442c110.44365,0,219.650437,0,329.270157,0c0-4.067375-.261078-7.733299.068421-11.34536.381408-4.181175-1.130158-5.330703-5.287262-5.313499-36.989594.153007-73.980072.081535-110.970291.090523-70.314164.017082-140.628327.043586-211.83688.303894M15.056392,92.156845c1.491473.614174,2.974492,1.73513,4.475793,1.760178c9.662721.161186,19.329498.102165,28.994838.076591c8.044766-.021278,15.325047-2.458076,21.778237-7.23349c9.493393-7.0252,10.755134-27.223781,2.489105-33.527378-3.190659-2.433163-6.648209-4.516334-9.973747-6.751957c7.793663-4.976658,12.39936-13.719814,11.08564-21.186514C72.187103,15.523194,66.379448,9.06923,56.68219,7.917671C45.034126,6.53445,33.206444,6.728784,21.477869,5.927662c-4.930883-.336804-6.649515,1.062937-6.597012,6.304311.263723,26.327288.12577,52.658599.175535,79.924872m143.956029-31.62524c2.477829-12.930447.867874-25.451676-4.490418-37.358393-5.502029-12.226048-15.745025-18.542768-28.713363-18.932003-12.069611-.36226-22.875428,4.327852-28.741967,15.472471-10.506874,19.959835-10.680649,40.75325.058472,60.474308c8.114975,14.902146,24.735992,19.505272,40.525841,13.027588c14.096191-5.782875,18.997146-17.997658,21.361435-32.683971M193.393005,6.720591c-6.197433,1.883975-11.061233,5.927666-14.17514,11.22805-11.75798,20.014002-11.700134,40.953012-1.705078,61.333532c5.973297,12.179878,17.454483,17.74099,31.040512,16.557388c13.523392-1.178154,22.863541-8.657234,27.918838-21.475463c4.759232-12.067532,5.584992-24.426129,3.498688-37.082241-4.008499-24.316576-21.992889-38.373877-46.57782-30.561266M293.513123,67.030525c4.349975,8.025826,8.668426,16.0691,13.087219,24.056847.597015,1.079178,1.660339,2.637985,2.572143,2.683449c5.18805.258728,10.395661.125419,16.302643.125419-.856598-2.205467-1.184265-3.473984-1.803467-4.579178-8.191131-14.619789-16.203064-29.347988-24.785644-43.735378-2.424744-4.06467-2.005158-6.582416.817047-9.872375c6.689545-7.798338,13.152832-15.792311,19.624145-23.774843c1.163025-1.4346,1.926789-3.19284,3.542328-5.934215-5.357788,0-9.505279-.405699-13.520446.148084-2.516022.347018-5.153168,1.746623-7.152039,3.38596-2.127594,1.744897-3.535828,4.35448-5.311188,6.543479C289.52417,25.154709,282.142426,34.215378,274,44.22628c0-10.078129.064209-18.851433-.015533-27.623428-.110657-12.170307,1.687103-10.260783-10.572571-10.699923-4.450653-.159422-5.656891,1.223047-5.624939,5.60032.187073,25.651906.083862,51.305883.107605,76.95913.001617,1.752717.240204,3.505219.360901,5.153092c5.519043,0,10.424286,0,15.78833,0c.268676-14.582657-3.894501-30.269081,12.225189-39.530266c2.042908,3.67461,4.445984,7.997002,7.244141,12.94532M33.842598,161.944519c-.533398-.332214-1.527325-.657989-1.532078-.99762-.091938-6.564605-.068111-13.130844-.068111-19.947509c10.658138,0,20.643623.001938,30.629108-.000565c9.279186-.002335,9.386662-.251846,9.317654-9.466339-.025482-3.402634-1.00251-4.642242-4.567978-4.604286-15.82169.168411-31.647167.167816-47.468977.005134-3.89517-.040054-5.239726,1.21875-5.219574,5.170227.132511,25.983155.118588,51.96753.010299,77.950898-.014974,3.592804,1.011301,5.045074,4.812586,5.009857c16.488324-.152817,32.979588-.147675,49.468068-.003739c3.794777.033112,5.158889-1.450195,4.79367-5.039703-.117424-1.154037-.112495-2.338959-.001922-3.494293.341171-3.564881-1.389801-4.629196-4.74466-4.572708-8.492302.142959-16.988628.046951-25.483341.046753-3.77219-.000092-7.54438-.000016-11.48917-.000016c0-8.935272,0-17.1707,0-26.001571c9.731503,0,19.176559.034469,28.620815-.036896c1.428669-.010773,4.014607-.326645,4.094265-.819763.571305-3.536545,1.063599-7.213761.589875-10.712097-.139489-1.030137-3.452324-2.258896-5.343216-2.315522-8.48724-.254089-16.986138-.118576-26.417313-.170242M281.602356,175.99939c7.661377-.000672,15.326141.116256,22.98111-.105423c1.457519-.042206,3.797302-1.118851,4.165954-2.234833c2.719818-8.234497.058167-11.652283-8.650207-11.658142-3.331025-.002243-6.662049-.000366-9.993073-.000366-4.92215,0-9.84433-.000016-14.744263-.000016c0-7.399933,0-13.970092,0-21.00122c10.481812,0,20.607819.002731,30.733826-.000824c9.081207-.003189,8.994232-.147126,9.122437-9.18747.059417-4.191475-1.624207-4.92102-5.319031-4.880653-15.320923.167358-30.647095.220672-45.966004-.022179-4.549316-.072128-6.068756,1.214432-6.030609,5.913986.206818,25.480713.218018,50.965073-.008117,76.44545-.042664,4.804383,1.635894,5.886002,6.073822,5.818497c14.986206-.22789,29.977966-.086533,44.967621-.086929c8.287963-.000229,8.120697-.001084,8.137725-8.183014.007813-3.750702-1.380767-4.930619-5.010925-4.873581-10.490173.164886-20.984619.069839-31.477325.04631-1.75644-.003952-3.512543-.160522-5.214753-.243942c0-8.829254,0-17.065918,0-25.745651c1.994721,0,3.630524,0,6.231812,0M154.840302,196.719925c-6.277924-19.032211-12.390183-38.121185-18.885743-57.078812-5.266647-15.370971-1.118271-12.234878-18.051414-12.684738-2.926964-.077759-4.396538.788674-5.35733,3.761398-8.506531,26.319336-17.210663,52.574753-25.787117,78.871659-.510682,1.565857-.42672,3.325638-.667412,5.410507c4.229286,0,7.726005-.225464,11.179184.065628c3.228569.272125,4.833854-.904709,5.672859-3.997696c1.515831-5.588104,3.107513-11.177689,5.140083-16.589157.557099-1.4832,2.745125-3.23761,4.26931-3.320969c6.643334-.363342,13.323227.000992,19.978684-.225998c3.146972-.107345,4.408691,1.160325,5.139267,4.036744c1.383239,5.446029,2.90419,10.876403,4.786468,16.164306.549423,1.543457,2.413986,3.520447,3.852722,3.67749c4.408097.481171,8.90213.174988,14.530396.174988-2.050431-6.356476-3.845337-11.920837-5.799957-18.26535m17.192199,5.895111c.539017,1.143082.7724,2.681717,1.662964,3.369873c13.137772,10.152008,27.789581,13.830002,43.868958,8.921997c15.308364-4.672699,23.080947-19.081329,18.199966-32.452804-3.224869-8.834565-10.655487-12.745011-18.528412-16.206192-6.82045-2.99849-13.676056-5.920578-20.445648-9.029892-4.501556-2.067566-6.063263-6.320404-4.486771-10.378403c1.075867-2.769364,4.31427-5.460327,7.211167-6.608643c6.933365-2.748337,13.619125-.515152,19.894027,2.910889c7.059388,3.85437,6.878159,3.717468,12.398728-2.310669c2.887649-3.153152,2.116836-4.747314-.949036-7.0569-10.159134-7.653099-21.503097-9.980621-33.73793-7.58448-7.090622,1.388664-13.748291,4.331352-17.924301,10.690468-8.137497,12.391555-4.373154,26.852996,8.945785,33.687713c8.25499,4.23613,16.872925,7.763382,25.314423,11.638306c4.739044,2.1754,7.032394,5.72554,6.584274,11.112991-.440979,5.301712-4.058487,7.326721-8.360657,8.627609-9.361557,2.830735-17.612197-.150024-25.326431-5.277389-6.996841-4.650543-6.977386-4.727066-12.208633,1.784714-.820587,1.021438-1.358887,2.269668-2.112473,4.160812Z" opacity="0" fill="#fff"/><path d="M5.42097,103.186935c70.761357-.141449,141.07552-.167953,211.389684-.185035c36.990219-.008988,73.980697.062484,110.970291-.090523c4.157104-.017204,5.66867,1.132324,5.287262,5.313499-.329499,3.612061-.068421,7.277985-.068421,11.34536-109.61972,0-218.826507,0-329.270157,0c.410779-5.37001.827462-10.81723,1.691341-16.383301Z" fill="#cedeff"/><path d="M15.033077,91.68866c-.02645-26.798088.111503-53.129399-.15222-79.456687-.052503-5.241374,1.666129-6.641115,6.597012-6.304311c11.728575.801122,23.556257.606788,35.204321,1.990009c9.697258,1.151559,15.504913,7.605523,17.224068,17.376604c1.31372,7.4667-3.291977,16.209856-11.08564,21.186514c3.325538,2.235623,6.783088,4.318794,9.973747,6.751957c8.266029,6.303597,7.004288,26.502178-2.489105,33.527378-6.45319,4.775414-13.733471,7.212212-21.778237,7.23349-9.66534.025574-19.332117.084595-28.994838-.076591-1.501301-.025048-2.98432-1.146004-4.499108-2.228363M47.912552,80.906372c2.224083-.633575,4.506786-1.112945,6.66048-1.931671c5.041756-1.916603,7.316365-5.804833,7.466599-11.658058.141224-5.50227-1.884827-9.912564-7.394512-10.820072-7.546063-1.242924-15.27013-1.405133-23.528427-2.080452c0,8.058426-.016694,14.839023.01329,21.619411.00643,1.453728.181841,2.906708.26696,4.174637.603974.325569.884396.606468,1.169102.61087c4.817497.074639,9.635532.114907,15.346508.085335M43.340893,41.004646c1.498192-.006851,3.013077.128231,4.491615-.045685c5.709808-.67163,8.766224-3.953136,9.6871-10.241226.643981-4.39736-1.568146-8.846668-6.245221-9.852407C44.831448,19.479866,38.149433,19.2062,31.537773,18.4526c0,8.400002,0,15.298331,0,22.552062c3.894879,0,7.373776,0,11.80312-.000016Z" fill="#c9f"/><path d="M159.00679,60.97393c-2.358658,14.243988-7.259613,26.458771-21.355804,32.241646-15.789849,6.477684-32.410866,1.874558-40.525841-13.027588C86.386024,60.46693,86.559799,39.673515,97.066673,19.71368C102.933212,8.569061,113.739029,3.878949,125.80864,4.241209c12.968338.389235,23.211334,6.705955,28.713363,18.932003c5.358292,11.906717,6.968247,24.427946,4.484787,37.800718M113.989502,23.514627c-9.097702,11.174582-7.374367,24.375548-6.46907,37.20378.312133,4.42292,2.442695,8.913109,4.531585,12.965904c2.656014,5.153145,7.206429,8.476219,13.239845,8.214973c5.687951-.246284,10.118706-3.262939,12.533715-8.496368c7.206161-15.616028,7.719391-31.416943-.120819-46.891855-4.93277-9.736216-15.2081-11.019119-23.715256-2.996434Z" fill="#c9f"/><path d="M193.749847,6.546397c24.228089-7.638417,42.212479,6.418884,46.220978,30.73546c2.086304,12.656112,1.260544,25.014709-3.498688,37.082241-5.055297,12.818229-14.395446,20.297309-27.918838,21.475463-13.586029,1.183602-25.067215-4.37751-31.040512-16.557388-9.995056-20.38052-10.052902-41.31953,1.705078-61.333532c3.113907-5.300384,7.977707-9.344075,14.531982-11.402244m26.509507,64.038717c5.2276-14.418198,5.645736-28.725258-.822312-42.939393-2.685959-5.902647-7.528488-9.19104-13.590744-9.442005-6.339966-.262468-10.928894,3.724661-13.5923,9.343891-6.453873,13.616322-5.881073,27.72836-1.376724,41.597092c1.326705,4.084885,4.739791,8.248215,8.341308,10.681427c7.588928,5.127159,15.309952,1.564339,21.040772-9.241012Z" fill="#c9f"/><path d="M293.315582,66.71756c-2.600616-4.635353-5.003692-8.957745-7.0466-12.632355-16.11969,9.261185-11.956513,24.947609-12.225189,39.530266-5.364044,0-10.269287,0-15.78833,0-.120697-1.647873-.359284-3.400375-.360901-5.153092-.023743-25.653247.079468-51.307224-.107605-76.95913-.031952-4.377273,1.174286-5.759742,5.624939-5.60032c12.259674.43914,10.461914-1.470384,10.572571,10.699923C274.064209,25.374847,274,34.148151,274,44.22628c8.142426-10.010902,15.52417-19.071571,22.885864-28.148506c1.77536-2.188999,3.183594-4.798582,5.311188-6.543479c1.998871-1.639337,4.636017-3.038942,7.152039-3.38596c4.015167-.553783,8.162658-.148084,13.520446-.148084-1.615539,2.741375-2.379303,4.499615-3.542328,5.934215-6.471313,7.982532-12.9346,15.976505-19.624145,23.774843-2.822205,3.289959-3.241791,5.807705-.817047,9.872375c8.58258,14.38739,16.594513,29.115589,24.785644,43.735378.619202,1.105194.946869,2.373711,1.803467,4.579178-5.906982,0-11.114593.133309-16.302643-.125419-.911804-.045464-1.975128-1.604271-2.572143-2.683449-4.418793-7.987747-8.737244-16.031021-13.28476-24.369812Z" fill="#c9f"/><path d="M34.310837,161.967819c8.962936.028366,17.461834-.107147,25.949074.146942c1.890892.056626,5.203727,1.285385,5.343216,2.315522.473724,3.498336-.01857,7.175552-.589875,10.712097-.079658.493118-2.665596.80899-4.094265.819763-9.444256.071365-18.889312.036896-28.620815.036896c0,8.830871,0,17.066299,0,26.001571c3.94479,0,7.71698-.000076,11.48917.000016c8.494713.000198,16.991039.096206,25.483341-.046753c3.354859-.056488,5.085831,1.007827,4.74466,4.572708-.110573,1.155334-.115502,2.340256.001922,3.494293.365219,3.589508-.998893,5.072815-4.79367,5.039703-16.48848-.143936-32.979744-.149078-49.468068.003739-3.801285.035217-4.82756-1.417053-4.812586-5.009857.108289-25.983368.122212-51.967743-.010299-77.950898-.020152-3.951477,1.324404-5.210281,5.219574-5.170227c15.82181.162682,31.647287.163277,47.468977-.005134c3.565468-.037956,4.542496,1.201652,4.567978,4.604286.069008,9.214493-.038468,9.464004-9.317654,9.466339-9.985485.002503-19.97097.000565-30.629108.000565c0,6.816665-.023827,13.382904.068111,19.947509.004753.339631.99868.665406,2.000317,1.02092Z" fill="#c9f"/><path d="M281.119598,175.99939c-2.11853,0-3.754333,0-5.749054,0c0,8.679733,0,16.916397,0,25.745651c1.70221.08342,3.458313.23999,5.214753.243942c10.492706.023529,20.987152.118576,31.477325-.04631c3.630158-.057038,5.018738,1.122879,5.010925,4.873581-.017028,8.18193.150238,8.182785-8.137725,8.183014-14.989655.000396-29.981415-.140961-44.967621.086929-4.437928.067505-6.116486-1.014114-6.073822-5.818497.226135-25.480377.214935-50.964737.008117-76.44545-.038147-4.699554,1.481293-5.986114,6.030609-5.913986c15.318909.242851,30.645081.189537,45.966004.022179c3.694824-.040367,5.378448.689178,5.319031,4.880653-.128205,9.040344-.04123,9.184281-9.122437,9.18747-10.126007.003555-20.252014.000824-30.733826.000824c0,7.031128,0,13.601287,0,21.00122c4.899933,0,9.822113.000016,14.744263.000016c3.331024,0,6.662048-.001877,9.993073.000366c8.708374.005859,11.370025,3.423645,8.650207,11.658142-.368652,1.115982-2.708435,2.192627-4.165954,2.234833-7.654969.221679-15.319733.104751-23.463868.105423Z" fill="#c9f"/><path d="M154.920166,197.110016c1.874756,5.954422,3.669662,11.518783,5.720093,17.875259-5.628266,0-10.122299.306183-14.530396-.174988-1.438736-.157043-3.303299-2.134033-3.852722-3.67749-1.882278-5.287903-3.403229-10.718277-4.786468-16.164306-.730576-2.876419-1.992295-4.144089-5.139267-4.036744-6.655457.22699-13.33535-.137344-19.978684.225998-1.524185.083359-3.712211,1.837769-4.26931,3.320969-2.03257,5.411468-3.624252,11.001053-5.140083,16.589157-.839005,3.092987-2.44429,4.269821-5.672859,3.997696-3.453179-.291092-6.949898-.065628-11.179184-.065628.240692-2.084869.15673-3.84465.667412-5.410507c8.576454-26.296906,17.280586-52.552323,25.787117-78.871659.960792-2.972724,2.430366-3.839157,5.35733-3.761398c16.933143.44986,12.784767-2.686233,18.051414,12.684738c6.49556,18.957627,12.607819,38.046601,18.965607,57.468903m-24.983948-19.132477c.560257-.895203,1.775833-1.976669,1.582306-2.657623-2.812424-9.895157-5.81353-19.736695-9.017349-30.417176-3.311737,11.454529-6.359245,21.995118-9.568466,33.095063c5.849891,0,10.982681,0,17.003509-.020264Z" fill="#c9f"/><path d="M172.07489,202.24115c.711197-1.517258,1.249497-2.765488,2.070084-3.786926c5.231247-6.51178,5.211792-6.435257,12.208633-1.784714c7.714234,5.127365,15.964874,8.108124,25.326431,5.277389c4.30217-1.300888,7.919678-3.325897,8.360657-8.627609.44812-5.387451-1.84523-8.937591-6.584274-11.112991-8.441498-3.874924-17.059433-7.402176-25.314423-11.638306-13.318939-6.834717-17.083282-21.296158-8.945785-33.687713c4.17601-6.359116,10.833679-9.301804,17.924301-10.690468c12.234833-2.396141,23.578796-.068619,33.73793,7.58448c3.065872,2.309586,3.836685,3.903748.949036,7.0569-5.520569,6.028137-5.33934,6.165039-12.398728,2.310669-6.274902-3.426041-12.960662-5.659226-19.894027-2.910889-2.896897,1.148316-6.1353,3.839279-7.211167,6.608643-1.576492,4.057999-.014785,8.310837,4.486771,10.378403c6.769592,3.109314,13.625198,6.031402,20.445648,9.029892c7.872925,3.461181,15.303543,7.371627,18.528412,16.206192c4.880981,13.371475-2.891602,27.780105-18.199966,32.452804-16.079377,4.908005-30.731186,1.230011-43.868958-8.921997-.890564-.688156-1.123947-2.226791-1.620575-3.743759Z" fill="#c9f"/><path d="M47.466019,80.945091c-5.264443-.009147-10.082478-.049415-14.899975-.124054-.284706-.004402-.565128-.285301-1.169102-.61087-.085119-1.267929-.26053-2.720909-.26696-4.174637-.029984-6.780388-.01329-13.560985-.01329-21.619411c8.258297.675319,15.982364.837528,23.528427,2.080452c5.509685.907508,7.535736,5.317802,7.394512,10.820072-.150234,5.853225-2.424843,9.741455-7.466599,11.658058-2.153694.818726-4.436397,1.298096-7.107013,1.97039Z" opacity="0" fill="#fefdff"/><path d="M42.865669,41.004654c-3.95412.000008-7.433017.000008-11.327896.000008c0-7.253731,0-14.15206,0-22.552062c6.61166.7536,13.293675,1.027266,19.736614,2.412728c4.677075,1.005739,6.889202,5.455047,6.245221,9.852407-.920876,6.28809-3.977292,9.569596-9.6871,10.241226-1.478538.173916-2.993423.038834-4.966839.045693Z" opacity="0" fill="#fefdff"/><path d="M114.246841,23.255634c8.249817-7.763692,18.525147-6.480789,23.457917,3.255427c7.84021,15.474912,7.32698,31.275827.120819,46.891855-2.415009,5.233429-6.845764,8.250084-12.533715,8.496368-6.033416.261246-10.583831-3.061828-13.239845-8.214973-2.08889-4.052795-4.219452-8.542984-4.531585-12.965904-.905297-12.828232-2.628632-26.029198,6.726409-37.462773Z" opacity="0" fill="#fff"/><path d="M220.107849,70.935646c-5.579315,10.454819-13.300339,14.017639-20.889267,8.89048-3.601517-2.433212-7.014603-6.596542-8.341308-10.681427-4.504349-13.868732-5.077149-27.98077,1.376724-41.597092c2.663406-5.61923,7.252334-9.606359,13.5923-9.343891c6.062256.250965,10.904785,3.539358,13.590744,9.442005c6.468048,14.214135,6.049912,28.521195.670807,43.289925Z" opacity="0" fill="#fff"/><path d="M129.492203,177.987671c-5.576813.010132-10.709603.010132-16.559494.010132c3.209221-11.099945,6.256729-21.640534,9.568466-33.095063c3.203819,10.680481,6.204925,20.522019,9.017349,30.417176.193527.680954-1.022049,1.76242-2.026321,2.667755Z" opacity="0" fill="#fffeff"/></svg>
