<svg version="1.1" id="Layer_1" xmlns="http://www.w3.org/2000/svg" xmlns:xlink="http://www.w3.org/1999/xlink" x="0px" y="0px"
	 width="100%" viewBox="0 0 336 219" enable-background="new 0 0 336 219" xml:space="preserve">
<path fill="#FFFFFF" opacity="1.000000" stroke="none" 
	d="
M221.000000,220.000000 
	C147.333344,220.000000 74.166687,220.000000 1.000020,220.000000 
	C1.000013,147.000015 1.000013,74.000038 1.000007,1.000039 
	C112.999969,1.000026 224.999939,1.000026 336.999939,1.000013 
	C336.999939,73.999962 336.999939,146.999924 336.999969,219.999939 
	C298.500000,220.000000 260.000000,220.000000 221.000000,220.000000 
M4.973774,103.305794 
	C4.557091,108.753006 4.140408,114.200226 3.729629,119.570236 
	C114.173279,119.570236 223.380066,119.570236 332.999786,119.570236 
	C332.999786,115.502861 332.738708,111.836937 333.068207,108.224876 
	C333.449615,104.043701 331.938049,102.894173 327.780945,102.911377 
	C290.791351,103.064384 253.800873,102.992912 216.810654,103.001900 
	C146.496490,103.018982 76.182327,103.045486 4.973774,103.305794 
M15.056392,92.156845 
	C16.547865,92.771019 18.030884,93.891975 19.532185,93.917023 
	C29.194906,94.078209 38.861683,94.019188 48.527023,93.993614 
	C56.571789,93.972336 63.852070,91.535538 70.305260,86.760124 
	C79.798653,79.734924 81.060394,59.536343 72.794365,53.232746 
	C69.603706,50.799583 66.146156,48.716412 62.820618,46.480789 
	C70.614281,41.504131 75.219978,32.760975 73.906258,25.294275 
	C72.187103,15.523194 66.379448,9.069230 56.682190,7.917671 
	C45.034126,6.534450 33.206444,6.728784 21.477869,5.927662 
	C16.546986,5.590858 14.828354,6.990599 14.880857,12.231973 
	C15.144580,38.559261 15.006627,64.890572 15.056392,92.156845 
M159.012421,60.531605 
	C161.490250,47.601158 159.880295,35.079929 154.522003,23.173212 
	C149.019974,10.947164 138.776978,4.630444 125.808640,4.241209 
	C113.739029,3.878949 102.933212,8.569061 97.066673,19.713680 
	C86.559799,39.673515 86.386024,60.466930 97.125145,80.187988 
	C105.240120,95.090134 121.861137,99.693260 137.650986,93.215576 
	C151.747177,87.432701 156.648132,75.217918 159.012421,60.531605 
M193.393005,6.720591 
	C187.195572,8.604566 182.331772,12.648257 179.217865,17.948641 
	C167.459885,37.962643 167.517731,58.901653 177.512787,79.282173 
	C183.486084,91.462051 194.967270,97.023163 208.553299,95.839561 
	C222.076691,94.661407 231.416840,87.182327 236.472137,74.364098 
	C241.231369,62.296566 242.057129,49.937969 239.970825,37.281857 
	C235.962326,12.965281 217.977936,-1.092020 193.393005,6.720591 
M293.513123,67.030525 
	C297.863098,75.056351 302.181549,83.099625 306.600342,91.087372 
	C307.197357,92.166550 308.260681,93.725357 309.172485,93.770821 
	C314.360535,94.029549 319.568146,93.896240 325.475128,93.896240 
	C324.618530,91.690773 324.290863,90.422256 323.671661,89.317062 
	C315.480530,74.697273 307.468597,59.969074 298.886017,45.581684 
	C296.461273,41.517014 296.880859,38.999268 299.703064,35.709309 
	C306.392609,27.910971 312.855896,19.916998 319.327209,11.934466 
	C320.490234,10.499866 321.253998,8.741626 322.869537,6.000251 
	C317.511749,6.000251 313.364258,5.594552 309.349091,6.148335 
	C306.833069,6.495353 304.195923,7.894958 302.197052,9.534295 
	C300.069458,11.279192 298.661224,13.888775 296.885864,16.077774 
	C289.524170,25.154709 282.142426,34.215378 274.000000,44.226280 
	C274.000000,34.148151 274.064209,25.374847 273.984467,16.602852 
	C273.873810,4.432545 275.671570,6.342069 263.411896,5.902929 
	C258.961243,5.743507 257.755005,7.125976 257.786957,11.503249 
	C257.974030,37.155155 257.870819,62.809132 257.894562,88.462379 
	C257.896179,90.215096 258.134766,91.967598 258.255463,93.615471 
	C263.774506,93.615471 268.679749,93.615471 274.043793,93.615471 
	C274.312469,79.032814 270.149292,63.346390 286.268982,54.085205 
	C288.311890,57.759815 290.714966,62.082207 293.513123,67.030525 
M33.842598,161.944519 
	C33.309200,161.612305 32.315273,161.286530 32.310520,160.946899 
	C32.218582,154.382294 32.242409,147.816055 32.242409,140.999390 
	C42.900547,140.999390 52.886032,141.001328 62.871517,140.998825 
	C72.150703,140.996490 72.258179,140.746979 72.189171,131.532486 
	C72.163689,128.129852 71.186661,126.890244 67.621193,126.928200 
	C51.799503,127.096611 35.974026,127.096016 20.152216,126.933334 
	C16.257046,126.893280 14.912490,128.152084 14.932642,132.103561 
	C15.065153,158.086716 15.051230,184.071091 14.942941,210.054459 
	C14.927967,213.647263 15.954242,215.099533 19.755527,215.064316 
	C36.243851,214.911499 52.735115,214.916641 69.223595,215.060577 
	C73.018372,215.093689 74.382484,213.610382 74.017265,210.020874 
	C73.899841,208.866837 73.904770,207.681915 74.015343,206.526581 
	C74.356514,202.961700 72.625542,201.897385 69.270683,201.953873 
	C60.778381,202.096832 52.282055,202.000824 43.787342,202.000626 
	C40.015152,202.000534 36.242962,202.000610 32.298172,202.000610 
	C32.298172,193.065338 32.298172,184.829910 32.298172,175.999039 
	C42.029675,175.999039 51.474731,176.033508 60.918987,175.962143 
	C62.347656,175.951370 64.933594,175.635498 65.013252,175.142380 
	C65.584557,171.605835 66.076851,167.928619 65.603127,164.430283 
	C65.463638,163.400146 62.150803,162.171387 60.259911,162.114761 
	C51.772671,161.860672 43.273773,161.996185 33.842598,161.944519 
M281.602356,175.999390 
	C289.263733,175.998718 296.928497,176.115646 304.583466,175.893967 
	C306.040985,175.851761 308.380768,174.775116 308.749420,173.659134 
	C311.469238,165.424637 308.807587,162.006851 300.099213,162.000992 
	C296.768188,161.998749 293.437164,162.000626 290.106140,162.000626 
	C285.183990,162.000626 280.261810,162.000610 275.361877,162.000610 
	C275.361877,154.600677 275.361877,148.030518 275.361877,140.999390 
	C285.843689,140.999390 295.969696,141.002121 306.095703,140.998566 
	C315.176910,140.995377 315.089935,140.851440 315.218140,131.811096 
	C315.277557,127.619621 313.593933,126.890076 309.899109,126.930443 
	C294.578186,127.097801 279.252014,127.151115 263.933105,126.908264 
	C259.383789,126.836136 257.864349,128.122696 257.902496,132.822250 
	C258.109314,158.302963 258.120514,183.787323 257.894379,209.267700 
	C257.851715,214.072083 259.530273,215.153702 263.968201,215.086197 
	C278.954407,214.858307 293.946167,214.999664 308.935822,214.999268 
	C317.223785,214.999039 317.056519,214.998184 317.073547,206.816254 
	C317.081360,203.065552 315.692780,201.885635 312.062622,201.942673 
	C301.572449,202.107559 291.078003,202.012512 280.585297,201.988983 
	C278.828857,201.985031 277.072754,201.828461 275.370544,201.745041 
	C275.370544,192.915787 275.370544,184.679123 275.370544,175.999390 
	C277.365265,175.999390 279.001068,175.999390 281.602356,175.999390 
M154.840302,196.719925 
	C148.562378,177.687714 142.450119,158.598740 135.954559,139.641113 
	C130.687912,124.270142 134.836288,127.406235 117.903145,126.956375 
	C114.976181,126.878616 113.506607,127.745049 112.545815,130.717773 
	C104.039284,157.037109 95.335152,183.292526 86.758698,209.589432 
	C86.248016,211.155289 86.331978,212.915070 86.091286,214.999939 
	C90.320572,214.999939 93.817291,214.774475 97.270470,215.065567 
	C100.499039,215.337692 102.104324,214.160858 102.943329,211.067871 
	C104.459160,205.479767 106.050842,199.890182 108.083412,194.478714 
	C108.640511,192.995514 110.828537,191.241104 112.352722,191.157745 
	C118.996056,190.794403 125.675949,191.158737 132.331406,190.931747 
	C135.478378,190.824402 136.740097,192.092072 137.470673,194.968491 
	C138.853912,200.414520 140.374863,205.844894 142.257141,211.132797 
	C142.806564,212.676254 144.671127,214.653244 146.109863,214.810287 
	C150.517960,215.291458 155.011993,214.985275 160.640259,214.985275 
	C158.589828,208.628799 156.794922,203.064438 154.840302,196.719925 
M172.032501,202.615036 
	C172.571518,203.758118 172.804901,205.296753 173.695465,205.984909 
	C186.833237,216.136917 201.485046,219.814911 217.564423,214.906906 
	C232.872787,210.234207 240.645370,195.825577 235.764389,182.454102 
	C232.539520,173.619537 225.108902,169.709091 217.235977,166.247910 
	C210.415527,163.249420 203.559921,160.327332 196.790329,157.218018 
	C192.288773,155.150452 190.727066,150.897614 192.303558,146.839615 
	C193.379425,144.070251 196.617828,141.379288 199.514725,140.230972 
	C206.448090,137.482635 213.133850,139.715820 219.408752,143.141861 
	C226.468140,146.996231 226.286911,146.859329 231.807480,140.831192 
	C234.695129,137.678040 233.924316,136.083878 230.858444,133.774292 
	C220.699310,126.121193 209.355347,123.793671 197.120514,126.189812 
	C190.029892,127.578476 183.372223,130.521164 179.196213,136.880280 
	C171.058716,149.271835 174.823059,163.733276 188.141998,170.567993 
	C196.396988,174.804123 205.014923,178.331375 213.456421,182.206299 
	C218.195465,184.381699 220.488815,187.931839 220.040695,193.319290 
	C219.599716,198.621002 215.982208,200.646011 211.680038,201.946899 
	C202.318481,204.777634 194.067841,201.796875 186.353607,196.669510 
	C179.356766,192.018967 179.376221,191.942444 174.144974,198.454224 
	C173.324387,199.475662 172.786087,200.723892 172.032501,202.615036 
z"/>
<path fill="#CEDEFF" opacity="1.000000" stroke="none" 
	d="
M5.420970,103.186935 
	C76.182327,103.045486 146.496490,103.018982 216.810654,103.001900 
	C253.800873,102.992912 290.791351,103.064384 327.780945,102.911377 
	C331.938049,102.894173 333.449615,104.043701 333.068207,108.224876 
	C332.738708,111.836937 332.999786,115.502861 332.999786,119.570236 
	C223.380066,119.570236 114.173279,119.570236 3.729629,119.570236 
	C4.140408,114.200226 4.557091,108.753006 5.420970,103.186935 
z"/>
<path fill="#CC99FF" opacity="1.000000" stroke="none" 
	d="
M15.033077,91.688660 
	C15.006627,64.890572 15.144580,38.559261 14.880857,12.231973 
	C14.828354,6.990599 16.546986,5.590858 21.477869,5.927662 
	C33.206444,6.728784 45.034126,6.534450 56.682190,7.917671 
	C66.379448,9.069230 72.187103,15.523194 73.906258,25.294275 
	C75.219978,32.760975 70.614281,41.504131 62.820618,46.480789 
	C66.146156,48.716412 69.603706,50.799583 72.794365,53.232746 
	C81.060394,59.536343 79.798653,79.734924 70.305260,86.760124 
	C63.852070,91.535538 56.571789,93.972336 48.527023,93.993614 
	C38.861683,94.019188 29.194906,94.078209 19.532185,93.917023 
	C18.030884,93.891975 16.547865,92.771019 15.033077,91.688660 
M47.912552,80.906372 
	C50.136635,80.272797 52.419338,79.793427 54.573032,78.974701 
	C59.614788,77.058098 61.889397,73.169868 62.039631,67.316643 
	C62.180855,61.814373 60.154804,57.404079 54.645119,56.496571 
	C47.099056,55.253647 39.374989,55.091438 31.116692,54.416119 
	C31.116692,62.474545 31.099998,69.255142 31.129982,76.035530 
	C31.136412,77.489258 31.311823,78.942238 31.396942,80.210167 
	C32.000916,80.535736 32.281338,80.816635 32.566044,80.821037 
	C37.383541,80.895676 42.201576,80.935944 47.912552,80.906372 
M43.340893,41.004646 
	C44.839085,40.997795 46.353970,41.132877 47.832508,40.958961 
	C53.542316,40.287331 56.598732,37.005825 57.519608,30.717735 
	C58.163589,26.320375 55.951462,21.871067 51.274387,20.865328 
	C44.831448,19.479866 38.149433,19.206200 31.537773,18.452600 
	C31.537773,26.852602 31.537773,33.750931 31.537773,41.004662 
	C35.432652,41.004662 38.911549,41.004662 43.340893,41.004646 
z"/>
<path fill="#CC99FF" opacity="1.000000" stroke="none" 
	d="
M159.006790,60.973930 
	C156.648132,75.217918 151.747177,87.432701 137.650986,93.215576 
	C121.861137,99.693260 105.240120,95.090134 97.125145,80.187988 
	C86.386024,60.466930 86.559799,39.673515 97.066673,19.713680 
	C102.933212,8.569061 113.739029,3.878949 125.808640,4.241209 
	C138.776978,4.630444 149.019974,10.947164 154.522003,23.173212 
	C159.880295,35.079929 161.490250,47.601158 159.006790,60.973930 
M113.989502,23.514627 
	C104.891800,34.689209 106.615135,47.890175 107.520432,60.718407 
	C107.832565,65.141327 109.963127,69.631516 112.052017,73.684311 
	C114.708031,78.837456 119.258446,82.160530 125.291862,81.899284 
	C130.979813,81.653000 135.410568,78.636345 137.825577,73.402916 
	C145.031738,57.786888 145.544968,41.985973 137.704758,26.511061 
	C132.771988,16.774845 122.496658,15.491942 113.989502,23.514627 
z"/>
<path fill="#CC99FF" opacity="1.000000" stroke="none" 
	d="
M193.749847,6.546397 
	C217.977936,-1.092020 235.962326,12.965281 239.970825,37.281857 
	C242.057129,49.937969 241.231369,62.296566 236.472137,74.364098 
	C231.416840,87.182327 222.076691,94.661407 208.553299,95.839561 
	C194.967270,97.023163 183.486084,91.462051 177.512787,79.282173 
	C167.517731,58.901653 167.459885,37.962643 179.217865,17.948641 
	C182.331772,12.648257 187.195572,8.604566 193.749847,6.546397 
M220.259354,70.585114 
	C225.486954,56.166916 225.905090,41.859856 219.437042,27.645721 
	C216.751083,21.743074 211.908554,18.454681 205.846298,18.203716 
	C199.506332,17.941248 194.917404,21.928377 192.253998,27.547607 
	C185.800125,41.163929 186.372925,55.275967 190.877274,69.144699 
	C192.203979,73.229584 195.617065,77.392914 199.218582,79.826126 
	C206.807510,84.953285 214.528534,81.390465 220.259354,70.585114 
z"/>
<path fill="#CC99FF" opacity="1.000000" stroke="none" 
	d="
M293.315582,66.717560 
	C290.714966,62.082207 288.311890,57.759815 286.268982,54.085205 
	C270.149292,63.346390 274.312469,79.032814 274.043793,93.615471 
	C268.679749,93.615471 263.774506,93.615471 258.255463,93.615471 
	C258.134766,91.967598 257.896179,90.215096 257.894562,88.462379 
	C257.870819,62.809132 257.974030,37.155155 257.786957,11.503249 
	C257.755005,7.125976 258.961243,5.743507 263.411896,5.902929 
	C275.671570,6.342069 273.873810,4.432545 273.984467,16.602852 
	C274.064209,25.374847 274.000000,34.148151 274.000000,44.226280 
	C282.142426,34.215378 289.524170,25.154709 296.885864,16.077774 
	C298.661224,13.888775 300.069458,11.279192 302.197052,9.534295 
	C304.195923,7.894958 306.833069,6.495353 309.349091,6.148335 
	C313.364258,5.594552 317.511749,6.000251 322.869537,6.000251 
	C321.253998,8.741626 320.490234,10.499866 319.327209,11.934466 
	C312.855896,19.916998 306.392609,27.910971 299.703064,35.709309 
	C296.880859,38.999268 296.461273,41.517014 298.886017,45.581684 
	C307.468597,59.969074 315.480530,74.697273 323.671661,89.317062 
	C324.290863,90.422256 324.618530,91.690773 325.475128,93.896240 
	C319.568146,93.896240 314.360535,94.029549 309.172485,93.770821 
	C308.260681,93.725357 307.197357,92.166550 306.600342,91.087372 
	C302.181549,83.099625 297.863098,75.056351 293.315582,66.717560 
z"/>
<path fill="#CC99FF" opacity="1.000000" stroke="none" 
	d="
M34.310837,161.967819 
	C43.273773,161.996185 51.772671,161.860672 60.259911,162.114761 
	C62.150803,162.171387 65.463638,163.400146 65.603127,164.430283 
	C66.076851,167.928619 65.584557,171.605835 65.013252,175.142380 
	C64.933594,175.635498 62.347656,175.951370 60.918987,175.962143 
	C51.474731,176.033508 42.029675,175.999039 32.298172,175.999039 
	C32.298172,184.829910 32.298172,193.065338 32.298172,202.000610 
	C36.242962,202.000610 40.015152,202.000534 43.787342,202.000626 
	C52.282055,202.000824 60.778381,202.096832 69.270683,201.953873 
	C72.625542,201.897385 74.356514,202.961700 74.015343,206.526581 
	C73.904770,207.681915 73.899841,208.866837 74.017265,210.020874 
	C74.382484,213.610382 73.018372,215.093689 69.223595,215.060577 
	C52.735115,214.916641 36.243851,214.911499 19.755527,215.064316 
	C15.954242,215.099533 14.927967,213.647263 14.942941,210.054459 
	C15.051230,184.071091 15.065153,158.086716 14.932642,132.103561 
	C14.912490,128.152084 16.257046,126.893280 20.152216,126.933334 
	C35.974026,127.096016 51.799503,127.096611 67.621193,126.928200 
	C71.186661,126.890244 72.163689,128.129852 72.189171,131.532486 
	C72.258179,140.746979 72.150703,140.996490 62.871517,140.998825 
	C52.886032,141.001328 42.900547,140.999390 32.242409,140.999390 
	C32.242409,147.816055 32.218582,154.382294 32.310520,160.946899 
	C32.315273,161.286530 33.309200,161.612305 34.310837,161.967819 
z"/>
<path fill="#CC99FF" opacity="1.000000" stroke="none" 
	d="
M281.119598,175.999390 
	C279.001068,175.999390 277.365265,175.999390 275.370544,175.999390 
	C275.370544,184.679123 275.370544,192.915787 275.370544,201.745041 
	C277.072754,201.828461 278.828857,201.985031 280.585297,201.988983 
	C291.078003,202.012512 301.572449,202.107559 312.062622,201.942673 
	C315.692780,201.885635 317.081360,203.065552 317.073547,206.816254 
	C317.056519,214.998184 317.223785,214.999039 308.935822,214.999268 
	C293.946167,214.999664 278.954407,214.858307 263.968201,215.086197 
	C259.530273,215.153702 257.851715,214.072083 257.894379,209.267700 
	C258.120514,183.787323 258.109314,158.302963 257.902496,132.822250 
	C257.864349,128.122696 259.383789,126.836136 263.933105,126.908264 
	C279.252014,127.151115 294.578186,127.097801 309.899109,126.930443 
	C313.593933,126.890076 315.277557,127.619621 315.218140,131.811096 
	C315.089935,140.851440 315.176910,140.995377 306.095703,140.998566 
	C295.969696,141.002121 285.843689,140.999390 275.361877,140.999390 
	C275.361877,148.030518 275.361877,154.600677 275.361877,162.000610 
	C280.261810,162.000610 285.183990,162.000626 290.106140,162.000626 
	C293.437164,162.000626 296.768188,161.998749 300.099213,162.000992 
	C308.807587,162.006851 311.469238,165.424637 308.749420,173.659134 
	C308.380768,174.775116 306.040985,175.851761 304.583466,175.893967 
	C296.928497,176.115646 289.263733,175.998718 281.119598,175.999390 
z"/>
<path fill="#CC99FF" opacity="1.000000" stroke="none" 
	d="
M154.920166,197.110016 
	C156.794922,203.064438 158.589828,208.628799 160.640259,214.985275 
	C155.011993,214.985275 150.517960,215.291458 146.109863,214.810287 
	C144.671127,214.653244 142.806564,212.676254 142.257141,211.132797 
	C140.374863,205.844894 138.853912,200.414520 137.470673,194.968491 
	C136.740097,192.092072 135.478378,190.824402 132.331406,190.931747 
	C125.675949,191.158737 118.996056,190.794403 112.352722,191.157745 
	C110.828537,191.241104 108.640511,192.995514 108.083412,194.478714 
	C106.050842,199.890182 104.459160,205.479767 102.943329,211.067871 
	C102.104324,214.160858 100.499039,215.337692 97.270470,215.065567 
	C93.817291,214.774475 90.320572,214.999939 86.091286,214.999939 
	C86.331978,212.915070 86.248016,211.155289 86.758698,209.589432 
	C95.335152,183.292526 104.039284,157.037109 112.545815,130.717773 
	C113.506607,127.745049 114.976181,126.878616 117.903145,126.956375 
	C134.836288,127.406235 130.687912,124.270142 135.954559,139.641113 
	C142.450119,158.598740 148.562378,177.687714 154.920166,197.110016 
M129.936218,177.977539 
	C130.496475,177.082336 131.712051,176.000870 131.518524,175.319916 
	C128.706100,165.424759 125.704994,155.583221 122.501175,144.902740 
	C119.189438,156.357269 116.141930,166.897858 112.932709,177.997803 
	C118.782600,177.997803 123.915390,177.997803 129.936218,177.977539 
z"/>
<path fill="#CC99FF" opacity="1.000000" stroke="none" 
	d="
M172.074890,202.241150 
	C172.786087,200.723892 173.324387,199.475662 174.144974,198.454224 
	C179.376221,191.942444 179.356766,192.018967 186.353607,196.669510 
	C194.067841,201.796875 202.318481,204.777634 211.680038,201.946899 
	C215.982208,200.646011 219.599716,198.621002 220.040695,193.319290 
	C220.488815,187.931839 218.195465,184.381699 213.456421,182.206299 
	C205.014923,178.331375 196.396988,174.804123 188.141998,170.567993 
	C174.823059,163.733276 171.058716,149.271835 179.196213,136.880280 
	C183.372223,130.521164 190.029892,127.578476 197.120514,126.189812 
	C209.355347,123.793671 220.699310,126.121193 230.858444,133.774292 
	C233.924316,136.083878 234.695129,137.678040 231.807480,140.831192 
	C226.286911,146.859329 226.468140,146.996231 219.408752,143.141861 
	C213.133850,139.715820 206.448090,137.482635 199.514725,140.230972 
	C196.617828,141.379288 193.379425,144.070251 192.303558,146.839615 
	C190.727066,150.897614 192.288773,155.150452 196.790329,157.218018 
	C203.559921,160.327332 210.415527,163.249420 217.235977,166.247910 
	C225.108902,169.709091 232.539520,173.619537 235.764389,182.454102 
	C240.645370,195.825577 232.872787,210.234207 217.564423,214.906906 
	C201.485046,219.814911 186.833237,216.136917 173.695465,205.984909 
	C172.804901,205.296753 172.571518,203.758118 172.074890,202.241150 
z"/>
<path fill="#FEFDFF" opacity="1.000000" stroke="none" 
	d="
M47.466019,80.945091 
	C42.201576,80.935944 37.383541,80.895676 32.566044,80.821037 
	C32.281338,80.816635 32.000916,80.535736 31.396942,80.210167 
	C31.311823,78.942238 31.136412,77.489258 31.129982,76.035530 
	C31.099998,69.255142 31.116692,62.474545 31.116692,54.416119 
	C39.374989,55.091438 47.099056,55.253647 54.645119,56.496571 
	C60.154804,57.404079 62.180855,61.814373 62.039631,67.316643 
	C61.889397,73.169868 59.614788,77.058098 54.573032,78.974701 
	C52.419338,79.793427 50.136635,80.272797 47.466019,80.945091 
z"/>
<path fill="#FEFDFF" opacity="1.000000" stroke="none" 
	d="
M42.865669,41.004654 
	C38.911549,41.004662 35.432652,41.004662 31.537773,41.004662 
	C31.537773,33.750931 31.537773,26.852602 31.537773,18.452600 
	C38.149433,19.206200 44.831448,19.479866 51.274387,20.865328 
	C55.951462,21.871067 58.163589,26.320375 57.519608,30.717735 
	C56.598732,37.005825 53.542316,40.287331 47.832508,40.958961 
	C46.353970,41.132877 44.839085,40.997795 42.865669,41.004654 
z"/>
<path fill="#FFFFFF" opacity="1.000000" stroke="none" 
	d="
M114.246841,23.255634 
	C122.496658,15.491942 132.771988,16.774845 137.704758,26.511061 
	C145.544968,41.985973 145.031738,57.786888 137.825577,73.402916 
	C135.410568,78.636345 130.979813,81.653000 125.291862,81.899284 
	C119.258446,82.160530 114.708031,78.837456 112.052017,73.684311 
	C109.963127,69.631516 107.832565,65.141327 107.520432,60.718407 
	C106.615135,47.890175 104.891800,34.689209 114.246841,23.255634 
z"/>
<path fill="#FFFFFF" opacity="1.000000" stroke="none" 
	d="
M220.107849,70.935646 
	C214.528534,81.390465 206.807510,84.953285 199.218582,79.826126 
	C195.617065,77.392914 192.203979,73.229584 190.877274,69.144699 
	C186.372925,55.275967 185.800125,41.163929 192.253998,27.547607 
	C194.917404,21.928377 199.506332,17.941248 205.846298,18.203716 
	C211.908554,18.454681 216.751083,21.743074 219.437042,27.645721 
	C225.905090,41.859856 225.486954,56.166916 220.107849,70.935646 
z"/>
<path fill="#FFFEFF" opacity="1.000000" stroke="none" 
	d="
M129.492203,177.987671 
	C123.915390,177.997803 118.782600,177.997803 112.932709,177.997803 
	C116.141930,166.897858 119.189438,156.357269 122.501175,144.902740 
	C125.704994,155.583221 128.706100,165.424759 131.518524,175.319916 
	C131.712051,176.000870 130.496475,177.082336 129.492203,177.987671 
z"/>
</svg>